<?xml version="1.0" encoding="iso-8859-1"?>
<!-- Generator: Adobe Illustrator 19.0.0, SVG Export Plug-In . SVG Version: 6.00 Build 0)  -->
<svg version="1.1" id="Capa_1" xmlns="http://www.w3.org/2000/svg" xmlns:xlink="http://www.w3.org/1999/xlink" x="0px" y="0px"
	 viewBox="0 0 384 384" style="enable-background:new 0 0 384 384;" xml:space="preserve">
<path style="fill:#CCE4FF;" d="M232,256c40,0,40,16,80,16V64c-40,0-40-16-80-16s-40,16-80,16s-40-16-80-16v208c40,0,40,16,80,16
	S192,256,232,256z"/>
<path style="fill:#007AFF;" d="M88,273.24c7.152,1.256,12.368,3.336,18.056,5.616C116.776,283.144,128.92,288,152,288
	s35.224-4.856,45.944-9.144c9.2-3.68,17.136-6.856,34.056-6.856s24.856,3.176,34.056,6.856C276.776,283.144,288.92,288,312,288h16
	V48h-16c-16.92,0-24.856-3.176-34.056-6.856C267.224,36.856,255.08,32,232,32s-35.224,4.856-45.944,9.144
	C176.856,44.824,168.92,48,152,48s-24.856-3.176-34.056-6.856c-7.912-3.168-16.64-6.632-29.944-8.232V0H56v32v32v176v32v112h32
	V273.24z M88,65.24c7.152,1.256,12.368,3.336,18.056,5.616C116.776,75.144,128.92,80,152,80s35.224-4.856,45.944-9.144
	C207.144,67.176,215.08,64,232,64s24.856,3.176,34.056,6.856c7.92,3.168,16.624,6.648,29.944,8.248V254.76
	c-7.16-1.256-12.368-3.336-18.056-5.616C267.224,244.856,255.08,240,232,240s-35.224,4.856-45.944,9.144
	C176.856,252.824,168.92,256,152,256s-24.856-3.176-34.056-6.856c-7.912-3.168-16.64-6.632-29.944-8.232V65.24z"/>
<g>
</g>
<g>
</g>
<g>
</g>
<g>
</g>
<g>
</g>
<g>
</g>
<g>
</g>
<g>
</g>
<g>
</g>
<g>
</g>
<g>
</g>
<g>
</g>
<g>
</g>
<g>
</g>
<g>
</g>
</svg>
