<svg height="512pt" viewBox="0 0 512 512" width="512pt" xmlns="http://www.w3.org/2000/svg" xmlns:xlink="http://www.w3.org/1999/xlink"><linearGradient id="a" gradientUnits="userSpaceOnUse" x1="0" x2="512" y1="256" y2="256"><stop offset="0" stop-color="#00f1ff"/><stop offset=".231" stop-color="#00d8ff"/><stop offset=".5138" stop-color="#00c0ff"/><stop offset=".7773" stop-color="#00b2ff"/><stop offset="1" stop-color="#00adff"/></linearGradient><path d="m512 256c0 141.386719-114.613281 256-256 256s-256-114.613281-256-256 114.613281-256 256-256 256 114.613281 256 256zm0 0" fill="url(#a)"/><g fill="#fff"><path d="m366.226562 314.441406c-8.285156 0-15-6.714844-15-15v-105.6875c0-13.179687-10.722656-23.902344-23.902343-23.902344h-108.929688c-8.285156 0-15-6.714843-15-15 0-8.285156 6.714844-15 15-15h108.925781c29.726563 0 53.90625 24.179688 53.90625 53.902344v105.6875c0 8.285156-6.714843 15-15 15zm0 0"/><path d="m366.386719 371.5c-9.195313 0-17.839844-3.589844-24.347657-10.113281l-29.226562-29.308594c-5.851562-5.863281-5.839844-15.359375.027344-21.210937 5.863281-5.851563 15.363281-5.839844 21.210937.027343l29.230469 29.304688c1.070312 1.074219 2.277344 1.300781 3.105469 1.300781s2.035156-.226562 3.105469-1.304688l28.847656-29.242187c5.816406-5.894531 15.3125-5.964844 21.210937-.144531 5.898438 5.816406 5.964844 15.3125.144531 21.210937l-28.886718 29.289063c-6.546875 6.582031-15.195313 10.183594-24.398438 10.191406-.007812 0-.015625 0-.023437 0zm0 0"/><path d="m292.308594 372.148438h-107.628906c-29.722657 0-53.902344-24.179688-53.902344-53.902344v-108.929688c0-8.285156 6.714844-15 15-15 8.28125 0 15 6.714844 15 15v108.929688c0 13.179687 10.722656 23.902344 23.902344 23.902344h107.628906c8.285156 0 15 6.714843 15 15 0 8.285156-6.714844 15-15 15zm0 0"/><path d="m102.980469 204.863281c-3.804688 0-7.609375-1.4375-10.535157-4.320312-5.894531-5.816407-5.960937-15.3125-.144531-21.210938l28.890625-29.289062c6.546875-6.582031 15.199219-10.183594 24.402344-10.191407h.019531c9.195313 0 17.839844 3.59375 24.347657 10.117188l29.226562 29.304688c5.851562 5.867187 5.839844 15.363281-.027344 21.210937-5.863281 5.851563-15.363281 5.839844-21.210937-.023437l-29.230469-29.308594c-1.070312-1.074219-2.277344-1.300782-3.105469-1.300782-.828125.003907-2.035156.230469-3.105469 1.304688l-28.847656 29.242188c-2.933594 2.976562-6.808594 4.464843-10.679687 4.464843zm0 0"/></g></svg>